<svg width="21" height="21" viewBox="0 0 21 21" fill="none" xmlns="http://www.w3.org/2000/svg">
<path d="M10 21C8.63333 21 7.34167 20.7375 6.125 20.2125C4.90833 19.6875 3.84583 18.9708 2.9375 18.0625C2.02917 17.1542 1.3125 16.0917 0.7875 14.875C0.2625 13.6583 0 12.3667 0 11C0 9.56667 0.275 8.2375 0.825 7.0125C1.375 5.7875 2.1125 4.725 3.0375 3.825C3.9625 2.925 5.025 2.225 6.225 1.725C7.425 1.225 8.68333 0.983333 10 1C10.6833 1 11.35 1.05833 12 1.175C12.65 1.29167 13.3167 1.51667 14 1.85L10.525 3.45L15.275 5.75L16.725 8.925C15.2083 9.10833 13.6458 8.93333 12.0375 8.4C10.4292 7.86667 9 6.83333 7.75 5.3C7.16667 6.71667 6.37083 7.88333 5.3625 8.8C4.35417 9.71667 3.23333 10.4 2 10.85C2 13.1667 2.77917 15.1042 4.3375 16.6625C5.89583 18.2208 7.78333 19 10 19C12.2667 19 14.175 18.2 15.725 16.6C17.275 15 18.0333 13.1333 18 11C18 10.7667 17.9917 10.5583 17.975 10.375C17.9583 10.1917 17.9333 9.98333 17.9 9.75L19.15 7C19.45 7.7 19.6667 8.37083 19.8 9.0125C19.9333 9.65417 20 10.3167 20 11C20 12.3333 19.7458 13.6042 19.2375 14.8125C18.7292 16.0208 18.0292 17.0833 17.1375 18C16.2458 18.9167 15.1917 19.6458 13.975 20.1875C12.7583 20.7292 11.4333 21 10 21ZM7 13.25C6.65 13.25 6.35417 13.1292 6.1125 12.8875C5.87083 12.6458 5.75 12.35 5.75 12C5.75 11.65 5.87083 11.3542 6.1125 11.1125C6.35417 10.8708 6.65 10.75 7 10.75C7.35 10.75 7.64583 10.8708 7.8875 11.1125C8.12917 11.3542 8.25 11.65 8.25 12C8.25 12.35 8.12917 12.6458 7.8875 12.8875C7.64583 13.1292 7.35 13.25 7 13.25ZM13 13.25C12.65 13.25 12.3542 13.1292 12.1125 12.8875C11.8708 12.6458 11.75 12.35 11.75 12C11.75 11.65 11.8708 11.3542 12.1125 11.1125C12.3542 10.8708 12.65 10.75 13 10.75C13.35 10.75 13.6458 10.8708 13.8875 11.1125C14.1292 11.3542 14.25 11.65 14.25 12C14.25 12.35 14.1292 12.6458 13.8875 12.8875C13.6458 13.1292 13.35 13.25 13 13.25ZM17.5 7L16.4 4.6L14 3.5L16.4 2.4L17.5 0L18.6 2.4L21 3.5L18.6 4.6L17.5 7Z" fill="#494551"/>
</svg>
